Coordinates
version=1
nRows=41
nColumns=38
inDegrees=no

Units are S.I. units (second, meters, Newtons, ...)
If the header above contains a line with 'inDegrees', this indicates whether rotational values are in degrees (yes) or radians (no).

endheader
time	pelvis_tilt	pelvis_list	pelvis_rotation	pelvis_tx	pelvis_ty	pelvis_tz	hip_flexion_r	hip_adduction_r	hip_rotation_r	knee_angle_r	ankle_angle_r	subtalar_angle_r	mtp_angle_r	hip_flexion_l	hip_adduction_l	hip_rotation_l	knee_angle_l	ankle_angle_l	subtalar_angle_l	mtp_angle_l	lumbar_extension	lumbar_bending	lumbar_rotation	arm_flex_r	arm_add_r	arm_rot_r	elbow_flex_r	pro_sup_r	wrist_flex_r	wrist_dev_r	arm_flex_l	arm_add_l	arm_rot_l	elbow_flex_l	pro_sup_l	wrist_flex_l	wrist_dev_l
2.04	3.06574	1.46068	-1.51212	0.784515	0.830453	0.956932	0.451219	-0.0981147	-0.0128437	1.09741	-0.198088	0	0	-0.095001	0.0482094	-0.314517	0.153845	0.106205	0	0	-0.261015	0.0208238	0.0607726	0.126309	-0.315344	0.867598	0.354192	0.828226	0	0	0.0956992	-0.147485	0.0760151	0.266324	1.5708	0	0
2.05	3.02073	1.45848	-1.46303	0.783738	0.838751	0.957457	0.452363	-0.0993638	-0.0342311	1.04687	-0.199428	0	0	-0.111994	0.0447406	-0.310441	0.143571	0.107542	0	0	-0.265037	0.0286603	0.0571335	0.128954	-0.317075	0.86854	0.356207	0.829585	0	0	0.0989489	-0.147196	0.077342	0.26688	1.5708	0	0
2.06	3.05972	1.45473	-1.49321	0.782257	0.846297	0.958684	0.448734	-0.114181	-0.0609235	0.992118	-0.20078	0	0	-0.117719	0.041925	-0.354396	0.15917	0.117058	0	0	-0.274186	0.0278399	0.0476751	0.13438	-0.316508	0.870911	0.355517	0.831994	0	0	0.105985	-0.147722	0.0786208	0.265326	1.5708	0	0
2.07	2.92698	1.4532	-1.36053	0.782374	0.855327	0.958193	0.444565	-0.0992553	-0.0847643	0.930031	-0.19477	0	0	-0.14399	0.0355508	-0.299848	0.126673	0.112611	0	0	-0.273402	0.0457232	0.0507855	0.133848	-0.319714	0.872079	0.359228	0.834103	0	0	0.107374	-0.146039	0.0777542	0.263375	1.5708	0	0
2.08	2.8774	1.4487	-1.3073	0.78206	0.863576	0.958541	0.4334	-0.0944891	-0.111381	0.862189	-0.178978	0	0	-0.160704	0.0289935	-0.294659	0.119295	0.115819	0	0	-0.279615	0.0546767	0.0496487	0.135678	-0.318218	0.858689	0.358181	0.849646	0	0	0.106886	-0.149735	0.100369	0.276502	1.5708	0	0
2.09	2.83769	1.44613	-1.26298	0.781486	0.872047	0.958573	0.423431	-0.0941011	-0.146558	0.79274	-0.188089	0	0	-0.174376	0.0235825	-0.290481	0.114114	0.120257	0	0	-0.28314	0.0630098	0.047236	0.137423	-0.318886	0.858551	0.360052	0.843448	0	0	0.113274	-0.147372	0.092516	0.268666	1.5708	0	0
2.1	2.80197	1.44266	-1.2208	0.780792	0.880761	0.958525	0.408713	-0.0939355	-0.190728	0.71864	-0.194001	0	0	-0.188834	0.0176471	-0.28547	0.109144	0.125022	0	0	-0.287004	0.0717717	0.0434202	0.138526	-0.319046	0.860522	0.360544	0.83866	0	0	0.118542	-0.14588	0.0875501	0.263398	1.5708	0	0
2.11	2.77137	1.43844	-1.18355	0.780223	0.889694	0.958389	0.390365	-0.0926868	-0.243521	0.640701	-0.199715	0	0	-0.204269	0.0114306	-0.28015	0.104074	0.130215	0	0	-0.291262	0.0802131	0.0396693	0.139287	-0.31854	0.86409	0.359788	0.834827	0	0	0.122717	-0.145117	0.0842755	0.260259	1.5708	0	0
2.12	2.74386	1.43385	-1.14945	0.77989	0.898714	0.958128	0.370153	-0.0892796	-0.30574	0.560675	-0.204839	0	0	-0.219836	0.0046122	-0.275527	0.0995603	0.135309	0	0	-0.295779	0.0883028	0.0362324	0.139937	-0.317407	0.868201	0.358599	0.830966	0	0	0.126299	-0.145221	0.0826467	0.258586	1.5708	0	0
2.13	2.71676	1.43043	-1.11633	0.779983	0.907768	0.957538	0.352629	-0.0830264	-0.373013	0.483696	-0.210868	0	0	-0.233426	-0.0027442	-0.272684	0.0965462	0.140775	0	0	-0.298902	0.0953262	0.0335195	0.140382	-0.31512	0.873336	0.356474	0.826793	0	0	0.129573	-0.146699	0.0824002	0.257282	1.5708	0	0
2.14	2.69101	1.42978	-1.08687	0.780675	0.91681	0.956481	0.341746	-0.0738569	-0.434546	0.414706	-0.212816	0	0	-0.243811	-0.00913872	-0.27205	0.0951537	0.1474	0	0	-0.299291	0.0996399	0.0328933	0.140312	-0.311704	0.876996	0.354362	0.820898	0	0	0.132586	-0.149541	0.083345	0.256106	1.5708	0	0
2.15	2.66642	1.43299	-1.06288	0.782159	0.925755	0.954822	0.336608	-0.0574748	-0.464445	0.348513	-0.182594	0	0	-0.250203	-0.013179	-0.275826	0.0950986	0.15578	0	0	-0.2964	0.0997409	0.0363017	0.139491	-0.307372	0.879423	0.352751	0.810837	0	0	0.125352	-0.161578	0.128268	0.280807	1.5708	0	0
2.16	2.63557	1.43913	-1.03535	0.783897	0.934693	0.952797	0.336996	-0.0393589	-0.477603	0.288625	-0.154502	0	0	-0.253436	-0.0156207	-0.282371	0.0955351	0.164524	0	0	-0.290375	0.0987995	0.0409865	0.139635	-0.305261	0.897882	0.35349	0.782678	0	0	0.137054	-0.157871	0.0894445	0.254717	1.5708	0	0
2.17	2.60898	1.44457	-1.01496	0.786521	0.943317	0.950565	0.316784	-0.000596052	-0.381938	0.187948	-0.0793534	0	0	-0.256477	-0.0184685	-0.293486	0.0988314	0.17492	0	0	-0.285689	0.0927876	0.0555959	0.13157	-0.290464	0.830916	0.338447	0.873083	0	0	0.101182	-0.219904	0.403125	0.384215	1.23713	0	0
2.18	2.56435	1.44899	-0.972992	0.788213	0.952901	0.948666	0.289905	0.0291672	-0.296276	0.0882709	-0.0705679	0	0	-0.261286	-0.0229026	-0.300347	0.0992567	0.183082	0	0	-0.279305	0.0965359	0.0536426	0.138094	-0.298303	0.923002	0.351521	0.744766	0	0	0.139366	-0.168094	0.0990652	0.257136	1.5708	0	0
2.19	2.54826	1.45291	-0.957289	0.789456	0.962702	0.946657	0.279241	0.0419375	-0.271839	0.0373344	-0.070579	0	0	-0.268642	-0.0239893	-0.303847	0.0993624	0.190525	0	0	-0.273787	0.0955728	0.055678	0.13464	-0.295321	0.924844	0.350856	0.742011	0	0	0.139293	-0.171751	0.100698	0.257871	1.5708	0	0
2.2	2.53855	1.45554	-0.947635	0.790439	0.9728	0.944746	0.274121	0.0505773	-0.261871	0.00990954	-0.0674727	0	0	-0.277786	-0.0247155	-0.306899	0.099634	0.197492	0	0	-0.268847	0.0953874	0.0570159	0.130645	-0.293631	0.926089	0.351428	0.740152	0	0	0.138377	-0.174731	0.101388	0.257611	1.5708	0	0
2.21	2.53261	1.4562	-0.941495	0.791136	0.983074	0.943053	0.272318	0.057018	-0.261464	0.0015779	-0.0628554	0	0	-0.288867	-0.026008	-0.309585	0.100282	0.20397	0	0	-0.265355	0.0968521	0.0578488	0.126401	-0.293054	0.9258	0.352407	0.74131	0	0	0.136902	-0.176478	0.101416	0.256958	1.5708	0	0
2.22	2.53231	1.45508	-0.941167	0.791584	0.993429	0.941575	0.27236	0.0618589	-0.265436	0.00901377	-0.0565021	0	0	-0.30121	-0.0276085	-0.313192	0.102336	0.210189	0	0	-0.263641	0.09967	0.0584015	0.122223	-0.293899	0.926641	0.354617	0.741598	0	0	0.134453	-0.177186	0.100841	0.258062	1.5708	0	0
2.23	2.5362	1.45289	-0.944342	0.791781	1.00392	0.940235	0.275241	0.0643706	-0.276767	0.0324866	-0.0494985	0	0	-0.313817	-0.0296282	-0.316834	0.106168	0.216018	0	0	-0.262791	0.103515	0.0577969	0.117973	-0.295747	0.928005	0.357774	0.741364	0	0	0.130595	-0.17746	0.100129	0.261389	1.5708	0	0
2.24	2.54564	1.45058	-0.947825	0.791432	1.01493	0.938952	0.279163	0.0625989	-0.300069	0.0665377	-0.0447907	0	0	-0.3254	-0.0331199	-0.315945	0.112577	0.221469	0	0	-0.260528	0.108264	0.0512605	0.112398	-0.297103	0.927886	0.360952	0.740505	0	0	0.124417	-0.178336	0.0987932	0.264322	1.5708	0	0
2.25	2.5586	1.44753	-0.953478	0.790947	1.02614	0.937835	0.282584	0.059041	-0.327623	0.104771	-0.0469999	0	0	-0.336378	-0.0378033	-0.314458	0.121884	0.225933	0	0	-0.258506	0.113558	0.0428795	0.106458	-0.298351	0.925536	0.364404	0.739178	0	0	0.117258	-0.179071	0.0957604	0.267044	1.5708	0	0
2.26	2.5859	1.44294	-0.972131	0.790446	1.03735	0.936899	0.29172	0.0480143	-0.394797	0.159421	-0.0628007	0	0	-0.347535	-0.0432211	-0.313478	0.135283	0.229596	0	0	-0.258588	0.116395	0.0374788	0.093753	-0.290975	0.858737	0.358196	0.822829	0	0	0.0766714	-0.222188	0.31891	0.374203	1.34707	0	0
2.27	2.5838	1.44085	-0.962454	0.790121	1.04898	0.93598	0.285903	0.0493695	-0.396204	0.170456	-0.0766776	0	0	-0.352678	-0.0512148	-0.315116	0.152752	0.23323	0	0	-0.254018	0.124742	0.0230056	0.0924707	-0.299249	0.909359	0.370682	0.762811	0	0	0.09575	-0.182131	0.0875992	0.288255	1.5708	0	0
2.28	2.59305	1.43963	-0.964757	0.790139	1.06059	0.935031	0.276688	0.0526147	-0.378098	0.170415	-0.0841736	0	0	-0.356772	-0.058078	-0.31413	0.172191	0.23502	0	0	-0.248963	0.128642	0.0142115	0.0840893	-0.300026	0.904461	0.37536	0.766595	0	0	0.0859547	-0.183703	0.0847452	0.294408	1.5708	0	0
2.29	2.59407	1.43808	-0.958897	0.790232	1.07228	0.934306	0.269858	0.0544924	-0.371189	0.172434	-0.124398	0	0	-0.357717	-0.0675508	-0.314332	0.197141	0.237118	0	0	-0.243467	0.133737	0.00535053	0.0753392	-0.301291	0.895458	0.381499	0.769996	0	0	0.0769482	-0.183374	0.0719232	0.29732	1.5708	0	0
2.3	2.5925	1.4383	-0.952705	0.790711	1.08403	0.933579	0.270271	0.0524032	-0.376087	0.187293	-0.160218	0	0	-0.354847	-0.0767104	-0.315197	0.226204	0.237969	0	0	-0.236171	0.137319	-0.00160018	0.0660102	-0.302499	0.88614	0.387804	0.776846	0	0	0.0665679	-0.183573	0.0611501	0.30355	1.5708	0	0
2.31	2.58742	1.43898	-0.945487	0.79143	1.09581	0.932977	0.275745	0.0476359	-0.385836	0.21505	-0.179322	0	0	-0.349331	-0.0859385	-0.316864	0.259045	0.235818	0	0	-0.228297	0.140634	-0.0061508	0.0566565	-0.304247	0.87807	0.393984	0.784429	0	0	0.0560972	-0.18341	0.0520432	0.309299	1.5708	0	0
2.32	2.5807	1.43809	-0.937707	0.792144	1.10761	0.932797	0.282364	0.0413629	-0.400077	0.25108	-0.194251	0	0	-0.342997	-0.0963553	-0.317825	0.295275	0.229133	0	0	-0.221883	0.145148	-0.00928481	0.0477175	-0.306578	0.868991	0.400065	0.79245	0	0	0.0461147	-0.182241	0.0425794	0.313624	1.5708	0	0
2.33	2.57145	1.43444	-0.927436	0.792828	1.11932	0.933212	0.286103	0.0365919	-0.413835	0.287278	-0.212083	0	0	-0.336215	-0.109342	-0.317021	0.335318	0.21739	0	0	-0.21823	0.151853	-0.0118296	0.03995	-0.30902	0.860718	0.404855	0.801242	0	0	0.0371625	-0.179813	0.0320064	0.317569	1.5708	0	0
2.34	2.55883	1.42846	-0.914579	0.793567	1.13096	0.934212	0.286926	0.0332542	-0.433256	0.322021	-0.240143	0	0	-0.327915	-0.125145	-0.31626	0.380241	0.199802	0	0	-0.216879	0.16053	-0.0132655	0.033443	-0.311555	0.852442	0.408725	0.809869	0	0	0.0292355	-0.176114	0.0193003	0.320917	1.5708	0	0
2.35	2.55212	1.4198	-0.907759	0.794322	1.14276	0.935833	0.284141	0.0261819	-0.478427	0.358289	-0.296143	0	0	-0.319306	-0.143093	-0.314992	0.429407	0.175376	0	0	-0.218347	0.170039	-0.0132116	0.0258928	-0.310315	0.823433	0.406378	0.854361	0	0	0.0171003	-0.176859	0.0338469	0.336671	1.5708	0	0
2.36	2.53255	1.41487	-0.892652	0.795957	1.15443	0.93729	0.277859	0.0299347	-0.485871	0.375657	-0.314958	0	0	-0.3018	-0.161348	-0.316661	0.485653	0.14297	0	0	-0.215907	0.177732	-0.0106278	0.0222537	-0.312611	0.830742	0.407913	0.846392	0	0	0.0127775	-0.170697	0.00531654	0.331501	1.5708	0	0
2.37	2.51493	1.41154	-0.880212	0.797845	1.16616	0.938743	0.269361	0.0333341	-0.499901	0.386631	-0.340268	0	0	-0.279066	-0.179436	-0.316806	0.545798	0.0996878	0	0	-0.211966	0.183541	-0.00708829	0.0185285	-0.313776	0.837528	0.407899	0.839434	0	0	0.00518595	-0.168136	-0.00678531	0.334914	1.5708	0	0
2.38	2.49797	1.40999	-0.867779	0.799781	1.17789	0.940014	0.259674	0.0350099	-0.524774	0.393304	-0.375952	0	0	-0.251083	-0.196867	-0.313751	0.608369	0.0462036	0	0	-0.206043	0.187822	-0.00418513	0.0147553	-0.314828	0.846729	0.408011	0.829492	0	0	-0.00342368	-0.167482	-0.0112255	0.340811	1.5708	0	0
2.39	2.47726	1.40962	-0.85049	0.801702	1.18948	0.940985	0.249135	0.0366097	-0.555098	0.395892	-0.415657	0	0	-0.21817	-0.214051	-0.306135	0.672739	-0.0151989	0	0	-0.198303	0.191676	-0.00256207	0.0120089	-0.318557	0.871608	0.41215	0.795623	0	0	-0.012651	-0.168252	-0.0103278	0.348409	1.5708	0	0
2.4	2.44131	1.41414	-0.821671	0.804258	1.20058	0.941164	0.242263	0.048739	-0.539159	0.390224	-0.384075	0	0	-0.177359	-0.229164	-0.29936	0.738599	-0.0798706	0	0	-0.186473	0.192438	0.00401505	0.0064368	-0.315653	0.856343	0.407819	0.822775	0	0	-0.0177221	-0.168951	-0.0126415	0.349712	1.5708	0	0
2.41	2.41381	1.41539	-0.798199	0.806259	1.21153	0.941607	0.232564	0.0557036	-0.543131	0.388142	-0.380651	0	0	-0.138471	-0.244089	-0.286915	0.802268	-0.149117	0	0	-0.177981	0.195196	0.0075526	0.00303194	-0.317342	0.862372	0.408655	0.819165	0	0	-0.023195	-0.170234	-0.0105606	0.353602	1.5708	0	0
2.42	2.3951	1.41469	-0.78271	0.807961	1.22199	0.942298	0.221531	0.0622214	-0.543108	0.387121	-0.37644	0	0	-0.100441	-0.25758	-0.271647	0.864609	-0.218236	0	0	-0.173362	0.198586	0.0109623	0.0010178	-0.320214	0.869154	0.410344	0.814395	0	0	-0.0263176	-0.171067	-0.00750876	0.35606	1.5708	0	0
2.43	2.40046	1.41358	-0.789233	0.810488	1.23198	0.94329	0.210887	0.0711105	-0.535589	0.389648	-0.376439	0	0	-0.064803	-0.278399	-0.254796	0.92264	-0.274974	0	0	-0.173109	0.197796	0.0133995	2.85329e-05	-0.322056	0.874981	0.414214	0.808123	0	0	-0.0272352	-0.173065	-0.00540917	0.357894	1.5708	0	0
2.44	2.4039	1.38816	-0.788802	0.810859	1.24153	0.947276	0.181214	0.0599738	-0.672769	0.404575	-0.55565	0	0	-0.0473498	-0.306249	-0.233794	0.972617	-0.323256	0	0	-0.19373	0.219122	0.013719	0.00456849	-0.333556	0.900852	0.425364	0.767841	0	0	-0.0218865	-0.167823	-0.00937932	0.35281	1.5708	0	0
